<?xml version="1.0" encoding="iso-8859-1"?>
<!-- Generator: Adobe Illustrator 19.0.0, SVG Export Plug-In . SVG Version: 6.00 Build 0)  -->
<svg version="1.1" id="Capa_1" xmlns="http://www.w3.org/2000/svg" xmlns:xlink="http://www.w3.org/1999/xlink" x="0px" y="0px"
	 viewBox="0 0 512 512" style="enable-background:new 0 0 512 512;" xml:space="preserve">
<g>
	<path style="fill:#0F5FCE;" d="M497,289.2H304.2c-8.284,0-15,6.716-15,15V482H30V319.2h162.8v66.4h-81.4c-8.284,0-15,6.716-15,15
		s6.716,15,15,15h96.4c8.284,0,15-6.716,15-15v-96.4c0-8.284-6.716-15-15-15H15c-8.284,0-15,6.716-15,15V497c0,8.284,6.716,15,15,15
		h482c8.284,0,15-6.716,15-15s-6.716-15-15-15H319.2V319.2H482v66.4h-81.399c-8.284,0-15,6.716-15,15s6.716,15,15,15H497
		c8.284,0,15-6.716,15-15v-96.4C512,295.916,505.284,289.2,497,289.2z"/>
	<path style="fill:#0F5FCE;" d="M497,0H304.2c-8.284,0-15,6.716-15,15v96.401c0,8.284,6.716,15,15,15h96.4c8.284,0,15-6.716,15-15
		s-6.716-15-15-15h-81.4V30H482v162.8H222.8V15c0-8.284-6.716-15-15-15H15C6.716,0,0,6.716,0,15v96.401c0,8.284,6.716,15,15,15
		h96.399c8.284,0,15-6.716,15-15s-6.716-15-15-15H30V30h162.8v162.8H15c-8.284,0-15,6.716-15,15s6.716,15,15,15h482
		c8.284,0,15-6.716,15-15V15C512,6.716,505.284,0,497,0z"/>
</g>
<g>
	<path style="fill:#063E8B;" d="M497,512c8.284,0,15-6.716,15-15s-6.716-15-15-15H319.2V319.2H482v66.4h-81.399
		c-8.284,0-15,6.716-15,15s6.716,15,15,15H497c8.284,0,15-6.716,15-15v-96.4c0-8.284-6.716-15-15-15H304.2c-8.284,0-15,6.716-15,15
		V482H256v30H497z"/>
	<path style="fill:#063E8B;" d="M512,207.8V15c0-8.284-6.716-15-15-15H304.2c-8.284,0-15,6.716-15,15v96.401c0,8.284,6.716,15,15,15
		h96.4c8.284,0,15-6.716,15-15s-6.716-15-15-15h-81.4V30H482v162.8H256v30h241C505.284,222.8,512,216.085,512,207.8z"/>
</g>
<g>
</g>
<g>
</g>
<g>
</g>
<g>
</g>
<g>
</g>
<g>
</g>
<g>
</g>
<g>
</g>
<g>
</g>
<g>
</g>
<g>
</g>
<g>
</g>
<g>
</g>
<g>
</g>
<g>
</g>
</svg>
